<mxfile host="app.diagrams.net" modified="2021-05-22T08:30:30.339Z" agent="5.0 (Windows)" etag="_KZ4S6J_1sktcMCUaDxj" version="14.7.0" type="github">
  <diagram id="y4Olgu8ze6KcVt4n7WNO" name="Page-1">
    <mxGraphModel dx="1422" dy="759" grid="1" gridSize="10" guides="1" tooltips="1" connect="1" arrows="1" fold="1" page="1" pageScale="1" pageWidth="827" pageHeight="1169" math="0" shadow="0">
      <root>
        <mxCell id="0" />
        <mxCell id="1" parent="0" />
        <mxCell id="ikuRrJnBZcYC7U_u3UF_-2" value="浏览器端" style="shape=image;html=1;verticalAlign=top;verticalLabelPosition=bottom;labelBackgroundColor=#ffffff;imageAspect=0;aspect=fixed;image=https://cdn3.iconfinder.com/data/icons/logos-brands-3/24/logo_brand_brands_logos_chrome-128.png" vertex="1" parent="1">
          <mxGeometry x="30" y="365" width="60" height="60" as="geometry" />
        </mxCell>
        <mxCell id="ikuRrJnBZcYC7U_u3UF_-6" value="主控平台（1个）" style="swimlane;startSize=0;fillColor=#fff2cc;strokeColor=#d6b656;" vertex="1" parent="1">
          <mxGeometry x="200" y="180" width="270" height="580" as="geometry" />
        </mxCell>
        <mxCell id="ikuRrJnBZcYC7U_u3UF_-8" value="" style="shape=image;html=1;verticalAlign=top;verticalLabelPosition=bottom;labelBackgroundColor=#ffffff;imageAspect=0;aspect=fixed;image=https://cdn4.iconfinder.com/data/icons/logos-brands-5/24/mysql-128.png" vertex="1" parent="ikuRrJnBZcYC7U_u3UF_-6">
          <mxGeometry x="101" y="505" width="68" height="68" as="geometry" />
        </mxCell>
        <mxCell id="ikuRrJnBZcYC7U_u3UF_-10" value="WebSocket服务" style="ellipse;whiteSpace=wrap;html=1;" vertex="1" parent="ikuRrJnBZcYC7U_u3UF_-6">
          <mxGeometry x="75" y="110" width="120" height="60" as="geometry" />
        </mxCell>
        <mxCell id="ikuRrJnBZcYC7U_u3UF_-36" value="计算量服务" style="ellipse;whiteSpace=wrap;html=1;" vertex="1" parent="ikuRrJnBZcYC7U_u3UF_-6">
          <mxGeometry x="140" y="280" width="120" height="40" as="geometry" />
        </mxCell>
        <mxCell id="ikuRrJnBZcYC7U_u3UF_-55" value="计算后的数据" style="edgeStyle=orthogonalEdgeStyle;rounded=0;orthogonalLoop=1;jettySize=auto;html=1;exitX=0.5;exitY=1;exitDx=0;exitDy=0;" edge="1" parent="ikuRrJnBZcYC7U_u3UF_-6" source="ikuRrJnBZcYC7U_u3UF_-44" target="ikuRrJnBZcYC7U_u3UF_-8">
          <mxGeometry relative="1" as="geometry">
            <mxPoint x="135" y="470" as="sourcePoint" />
          </mxGeometry>
        </mxCell>
        <mxCell id="ikuRrJnBZcYC7U_u3UF_-44" value="采集服务" style="ellipse;whiteSpace=wrap;html=1;" vertex="1" parent="ikuRrJnBZcYC7U_u3UF_-6">
          <mxGeometry x="75" y="420" width="120" height="40" as="geometry" />
        </mxCell>
        <mxCell id="ikuRrJnBZcYC7U_u3UF_-56" value="&#xa;过滤后的计算点信号&#xa;&#xa;" style="endArrow=classic;html=1;exitX=1;exitY=1;exitDx=0;exitDy=0;entryX=1;entryY=0;entryDx=0;entryDy=0;" edge="1" parent="ikuRrJnBZcYC7U_u3UF_-6" source="ikuRrJnBZcYC7U_u3UF_-10" target="ikuRrJnBZcYC7U_u3UF_-36">
          <mxGeometry width="50" height="50" relative="1" as="geometry">
            <mxPoint x="210" y="350" as="sourcePoint" />
            <mxPoint x="240" y="290" as="targetPoint" />
          </mxGeometry>
        </mxCell>
        <mxCell id="ikuRrJnBZcYC7U_u3UF_-59" value="计算公式中需要的子平台的测点" style="endArrow=classic;html=1;entryX=1;entryY=0;entryDx=0;entryDy=0;exitX=1;exitY=1;exitDx=0;exitDy=0;" edge="1" parent="ikuRrJnBZcYC7U_u3UF_-6" source="ikuRrJnBZcYC7U_u3UF_-36" target="ikuRrJnBZcYC7U_u3UF_-44">
          <mxGeometry width="50" height="50" relative="1" as="geometry">
            <mxPoint x="210" y="350" as="sourcePoint" />
            <mxPoint x="260" y="300" as="targetPoint" />
          </mxGeometry>
        </mxCell>
        <mxCell id="ikuRrJnBZcYC7U_u3UF_-60" value="计算后的数据" style="endArrow=classic;html=1;entryX=0;entryY=1;entryDx=0;entryDy=0;exitX=0;exitY=0;exitDx=0;exitDy=0;" edge="1" parent="ikuRrJnBZcYC7U_u3UF_-6" source="ikuRrJnBZcYC7U_u3UF_-44" target="ikuRrJnBZcYC7U_u3UF_-10">
          <mxGeometry width="50" height="50" relative="1" as="geometry">
            <mxPoint x="210" y="350" as="sourcePoint" />
            <mxPoint x="260" y="300" as="targetPoint" />
          </mxGeometry>
        </mxCell>
        <mxCell id="ikuRrJnBZcYC7U_u3UF_-11" value="" style="endArrow=classic;html=1;entryX=0;entryY=0.5;entryDx=0;entryDy=0;exitX=1;exitY=0.25;exitDx=0;exitDy=0;" edge="1" parent="1" source="ikuRrJnBZcYC7U_u3UF_-2" target="ikuRrJnBZcYC7U_u3UF_-10">
          <mxGeometry width="50" height="50" relative="1" as="geometry">
            <mxPoint x="60" y="370" as="sourcePoint" />
            <mxPoint x="290" y="360" as="targetPoint" />
          </mxGeometry>
        </mxCell>
        <mxCell id="ikuRrJnBZcYC7U_u3UF_-12" value="订阅组态需要的实时测点key" style="edgeLabel;html=1;align=center;verticalAlign=middle;resizable=0;points=[];" vertex="1" connectable="0" parent="ikuRrJnBZcYC7U_u3UF_-11">
          <mxGeometry x="-0.709" y="2" relative="1" as="geometry">
            <mxPoint x="63" y="-32" as="offset" />
          </mxGeometry>
        </mxCell>
        <mxCell id="ikuRrJnBZcYC7U_u3UF_-13" value="子平台（多个）" style="swimlane;startSize=0;swimlaneLine=1;fillColor=#d5e8d4;strokeColor=#82b366;" vertex="1" parent="1">
          <mxGeometry x="490" y="180" width="270" height="580" as="geometry" />
        </mxCell>
        <mxCell id="ikuRrJnBZcYC7U_u3UF_-15" value="子平台1WebSocket服务" style="ellipse;whiteSpace=wrap;html=1;" vertex="1" parent="ikuRrJnBZcYC7U_u3UF_-13">
          <mxGeometry x="65" y="120" width="120" height="50" as="geometry" />
        </mxCell>
        <mxCell id="ikuRrJnBZcYC7U_u3UF_-45" value="采集北向服务" style="ellipse;whiteSpace=wrap;html=1;" vertex="1" parent="ikuRrJnBZcYC7U_u3UF_-13">
          <mxGeometry x="65" y="420" width="120" height="40" as="geometry" />
        </mxCell>
        <mxCell id="ikuRrJnBZcYC7U_u3UF_-24" style="edgeStyle=orthogonalEdgeStyle;rounded=0;orthogonalLoop=1;jettySize=auto;html=1;exitX=0.5;exitY=0;exitDx=0;exitDy=0;entryX=0.5;entryY=0;entryDx=0;entryDy=0;" edge="1" parent="1" source="ikuRrJnBZcYC7U_u3UF_-10" target="ikuRrJnBZcYC7U_u3UF_-15">
          <mxGeometry relative="1" as="geometry">
            <Array as="points">
              <mxPoint x="329" y="240" />
              <mxPoint x="615" y="240" />
            </Array>
          </mxGeometry>
        </mxCell>
        <mxCell id="ikuRrJnBZcYC7U_u3UF_-47" value="订阅需要的测点" style="edgeLabel;html=1;align=center;verticalAlign=middle;resizable=0;points=[];" vertex="1" connectable="0" parent="ikuRrJnBZcYC7U_u3UF_-24">
          <mxGeometry x="0.049" y="-2" relative="1" as="geometry">
            <mxPoint as="offset" />
          </mxGeometry>
        </mxCell>
        <mxCell id="ikuRrJnBZcYC7U_u3UF_-25" value="" style="endArrow=classic;html=1;exitX=0.007;exitY=0.39;exitDx=0;exitDy=0;exitPerimeter=0;entryX=1;entryY=0.5;entryDx=0;entryDy=0;" edge="1" parent="1" source="ikuRrJnBZcYC7U_u3UF_-15" target="ikuRrJnBZcYC7U_u3UF_-10">
          <mxGeometry width="50" height="50" relative="1" as="geometry">
            <mxPoint x="230" y="480" as="sourcePoint" />
            <mxPoint x="400" y="320" as="targetPoint" />
          </mxGeometry>
        </mxCell>
        <mxCell id="ikuRrJnBZcYC7U_u3UF_-31" value="返回对应测点的数据" style="edgeLabel;html=1;align=center;verticalAlign=middle;resizable=0;points=[];" vertex="1" connectable="0" parent="ikuRrJnBZcYC7U_u3UF_-25">
          <mxGeometry x="-0.4866" y="2" relative="1" as="geometry">
            <mxPoint x="-33" y="2" as="offset" />
          </mxGeometry>
        </mxCell>
        <mxCell id="ikuRrJnBZcYC7U_u3UF_-34" value="" style="endArrow=classic;html=1;exitX=0.014;exitY=0.658;exitDx=0;exitDy=0;exitPerimeter=0;entryX=1;entryY=0.5;entryDx=0;entryDy=0;" edge="1" parent="1" source="ikuRrJnBZcYC7U_u3UF_-10" target="ikuRrJnBZcYC7U_u3UF_-2">
          <mxGeometry width="50" height="50" relative="1" as="geometry">
            <mxPoint x="310" y="400" as="sourcePoint" />
            <mxPoint x="70" y="370" as="targetPoint" />
          </mxGeometry>
        </mxCell>
        <mxCell id="ikuRrJnBZcYC7U_u3UF_-35" value="返回对应测点的数据" style="edgeLabel;html=1;align=center;verticalAlign=middle;resizable=0;points=[];" vertex="1" connectable="0" parent="ikuRrJnBZcYC7U_u3UF_-34">
          <mxGeometry x="-0.3872" y="2" relative="1" as="geometry">
            <mxPoint x="-11" y="7" as="offset" />
          </mxGeometry>
        </mxCell>
        <mxCell id="ikuRrJnBZcYC7U_u3UF_-52" value="请求需要的子平台测点数据" style="endArrow=classic;html=1;entryX=0.062;entryY=0.287;entryDx=0;entryDy=0;entryPerimeter=0;exitX=0.936;exitY=0.253;exitDx=0;exitDy=0;exitPerimeter=0;" edge="1" parent="1" source="ikuRrJnBZcYC7U_u3UF_-44" target="ikuRrJnBZcYC7U_u3UF_-45">
          <mxGeometry width="50" height="50" relative="1" as="geometry">
            <mxPoint x="395" y="611" as="sourcePoint" />
            <mxPoint x="470" y="590" as="targetPoint" />
          </mxGeometry>
        </mxCell>
        <mxCell id="ikuRrJnBZcYC7U_u3UF_-54" value="需要的子平台测点数据" style="endArrow=classic;html=1;exitX=0.039;exitY=0.735;exitDx=0;exitDy=0;entryX=0.976;entryY=0.701;entryDx=0;entryDy=0;exitPerimeter=0;entryPerimeter=0;" edge="1" parent="1" source="ikuRrJnBZcYC7U_u3UF_-45" target="ikuRrJnBZcYC7U_u3UF_-44">
          <mxGeometry width="50" height="50" relative="1" as="geometry">
            <mxPoint x="397.32000000000016" y="620.12" as="sourcePoint" />
            <mxPoint x="572.4399999999998" y="621.4799999999999" as="targetPoint" />
          </mxGeometry>
        </mxCell>
      </root>
    </mxGraphModel>
  </diagram>
</mxfile>
